<?xml version="1.0" encoding="UTF-8"?>
<svg version="1.1" xmlns="http://www.w3.org/2000/svg" width="216" height="211">
<path d="M0 0 C71.28 0 142.56 0 216 0 C216 69.63 216 139.26 216 211 C144.72 211 73.44 211 0 211 C0 141.37 0 71.74 0 0 Z " fill="#DF934D" transform="translate(0,0)"/>
<path d="M0 0 C71.28 0 142.56 0 216 0 C216 69.63 216 139.26 216 211 C144.72 211 73.44 211 0 211 C0 141.37 0 71.74 0 0 Z M66 20 C65.01 20.33 64.02 20.66 63 21 C61.53268051 23.21276197 61.53268051 23.21276197 60.3125 25.875 C59.87550781 26.75929688 59.43851563 27.64359375 58.98828125 28.5546875 C57.81264604 31.02399296 57.81264604 31.02399296 58 34 C57.34 34 56.68 34 56 34 C55.96132812 35.19496094 55.96132812 35.19496094 55.921875 36.4140625 C55.83679687 38.00347656 55.83679687 38.00347656 55.75 39.625 C55.70359375 40.66914062 55.6571875 41.71328125 55.609375 42.7890625 C54.86657259 46.70305981 53.36458496 48.81007997 51 52 C50.24401154 53.10488092 49.49278994 54.21303685 48.74609375 55.32421875 C47.97711917 56.4456944 47.20758478 57.5667864 46.4375 58.6875 C46.05142578 59.25533203 45.66535156 59.82316406 45.26757812 60.40820312 C43.35374596 63.18929144 41.40438121 65.64014437 39 68 C38.28552357 70.10332891 38.28552357 70.10332891 38 72 C37.34 72 36.68 72 36 72 C36 72.66 36 73.32 36 74 C35.34 74 34.68 74 34 74 C32.67954792 75.60986883 32.67954792 75.60986883 31.375 77.75 C30.84777344 78.56984375 30.32054688 79.3896875 29.77734375 80.234375 C28.89755859 81.60335937 28.89755859 81.60335937 28 83 C26.6474218 85.0010746 25.29320381 87.00104164 23.9375 89 C17.70579665 97.3612675 17.70579665 97.3612675 15 107 C14.34 107 13.68 107 13 107 C12.55269531 107.83402344 12.10539063 108.66804688 11.64453125 109.52734375 C11.03996094 110.65269531 10.43539063 111.77804688 9.8125 112.9375 C9.49659912 113.53143555 9.18069824 114.12537109 8.85522461 114.73730469 C7.44025637 117.38602781 6.0020924 119.99661798 4.421875 122.55078125 C0.7587887 128.47698122 -0.04531569 133.15353636 1.4296875 139.9921875 C1.76820904 141.28898539 2.12111697 142.58211276 2.48828125 143.87109375 C3.44426769 147.84828925 3.68305961 151.9298182 4 156 C4.66 156 5.32 156 6 156 C6.33 157.98 6.66 159.96 7 162 C7.56847656 162.18175781 8.13695312 162.36351562 8.72265625 162.55078125 C9.49480469 162.80214844 10.26695313 163.05351562 11.0625 163.3125 C11.81660156 163.55613281 12.57070312 163.79976562 13.34765625 164.05078125 C16 165 16 165 19.3203125 166.48046875 C23.09658474 168.03988478 26.84696206 169.08210477 30.8125 170 C32.22566679 170.34076708 33.63842972 170.68321336 35.05078125 171.02734375 C35.72834473 171.19218262 36.4059082 171.35702148 37.10400391 171.52685547 C42.58708913 172.89515565 47.93178962 174.55274848 53.1875 176.625 C56.79138872 178.02692005 60.15921309 178.59991803 64 179 C64 179.66 64 180.32 64 181 C71.59950285 183.21464802 79.18872972 185.35707912 86.890625 187.19140625 C89.53114964 187.87807535 92.11097038 188.65042997 94.71484375 189.4609375 C99.86182217 191.01866413 105.02555664 192.10123757 110.3125 193.0625 C111.22821777 193.23168945 112.14393555 193.40087891 113.08740234 193.57519531 C115.72360798 194.0578874 118.36140738 194.53055714 121 195 C122.91232422 195.34611328 122.91232422 195.34611328 124.86328125 195.69921875 C134.90464946 197.52104814 134.90464946 197.52104814 145 197 C149.24545976 193.47717169 150.88116364 189.33760734 152.95703125 184.3046875 C154.02076257 181.95412016 155.26991361 179.90278163 156.6875 177.75 C158.57626935 174.85311449 159.67092695 172.51011253 160 169 C160.66 169 161.32 169 162 169 C162.79311367 167.27149655 163.5844259 165.54216646 164.375 163.8125 C164.81585938 162.84957031 165.25671875 161.88664063 165.7109375 160.89453125 C166.52640913 159.06342678 167.28933891 157.20721139 167.9765625 155.32421875 C169.03866676 152.91218807 170.15540145 151.82528338 172 150 C173.03981674 147.81331127 173.03981674 147.81331127 173.875 145.375 C176.39659326 138.77858872 179.78308888 132.88485554 183.5625 126.9375 C188.04759503 120.36704914 188.04759503 120.36704914 190 113 C190.66 113 191.32 113 192 113 C192.42410156 112.0821875 192.84820312 111.164375 193.28515625 110.21875 C196.39437952 103.65692073 199.352912 97.87417139 204.51953125 92.6484375 C207.34927537 89.49764061 208.2532579 86.71513933 208.265625 82.515625 C208.26820313 81.66226563 208.27078125 80.80890625 208.2734375 79.9296875 C208.26570312 79.04539062 208.25796875 78.16109375 208.25 77.25 C208.25773438 76.38117188 208.26546875 75.51234375 208.2734375 74.6171875 C208.25680668 69.07912608 207.55762124 64.31569153 206 59 C205.34 59 204.68 59 204 59 C203.83177734 57.89978516 203.83177734 57.89978516 203.66015625 56.77734375 C201.92571627 49.48038027 196.83527829 44.39795663 190.8203125 40.28125 C189 39 189 39 186.75 36.6875 C184.7943766 34.8017203 183.57038768 34.62043841 181 34 C180.67 33.01 180.34 32.02 180 31 C177.71408975 29.95019646 175.56082866 29.10201938 173.1875 28.3125 C171.94355469 27.87550781 170.69960937 27.43851563 169.41796875 26.98828125 C165.95256366 25.81482345 165.95256366 25.81482345 162 26 C162 25.34 162 24.68 162 24 C157.87885657 22.54365608 153.85215289 21.51107293 149.5625 20.6875 C144.38825151 19.61565252 139.49109048 18.23308981 134.5 16.5 C121.76163246 12.09923203 108.95209404 9.82329622 95.5 9.8125 C94.69691406 9.80025391 93.89382812 9.78800781 93.06640625 9.77539062 C82.74478358 9.75029754 73.18823073 12.27930774 66 20 Z " fill="#FEFDFD" transform="translate(0,0)"/>
<path d="M0 0 C11.03133701 -0.55156685 20.87844561 2.91021618 31.26098633 6.22436523 C36.14449834 7.77178634 40.98021728 8.99604346 46 10 C47.33496448 10.32673956 48.66877156 10.6583573 50 11 C50 11.66 50 12.32 50 13 C50.85980469 13.12632813 51.71960938 13.25265625 52.60546875 13.3828125 C55.95572537 13.99195007 59.0722076 14.83390979 62.3125 15.875 C63.36050781 16.20242187 64.40851563 16.52984375 65.48828125 16.8671875 C66.31714844 17.24101562 67.14601562 17.61484375 68 18 C68.33 18.99 68.66 19.98 69 21 C70.36125 21.433125 70.36125 21.433125 71.75 21.875 C75.63993875 23.22151726 77.2156249 25.00679677 80 28 C80.969375 28.721875 81.93875 29.44375 82.9375 30.1875 C87.07426196 33.55063375 89.72321367 38.23651088 92 43 C92 43.99 92 44.98 92 46 C92.66 46 93.32 46 94 46 C96.74404535 55.57096462 98.41964439 67.64450547 94.796875 77.16015625 C92.82242437 80.14676213 90.65609572 82.410539 88 84.796875 C85.4985101 87.55242247 84.24594765 90.35011897 82.75 93.75 C82.22921875 94.92046875 81.7084375 96.0909375 81.171875 97.296875 C80.78515625 98.18890625 80.3984375 99.0809375 80 100 C79.34 100 78.68 100 78 100 C77.73832031 100.87011719 77.47664062 101.74023438 77.20703125 102.63671875 C76.00127973 105.99643415 74.52946301 108.76162114 72.6875 111.8125 C72.06488281 112.86050781 71.44226563 113.90851563 70.80078125 114.98828125 C70.20652344 115.98214844 69.61226562 116.97601563 69 118 C65.44061948 124.01206289 62.64088294 130.07303163 60.11328125 136.59375 C59 139 59 139 57 140 C55.71693445 142.67353703 54.52231266 145.33180259 53.375 148.0625 C53.05015625 148.82111328 52.7253125 149.57972656 52.390625 150.36132812 C51.58786154 152.23837799 50.79316857 154.1188756 50 156 C49.34 156 48.68 156 48 156 C47.84144531 156.56847656 47.68289062 157.13695312 47.51953125 157.72265625 C46.0430169 162.60902142 44.31261907 166.28753302 41.19140625 170.3125 C39.31254304 172.97370953 38.27254394 176.01228814 37 179 C35.5 181.9375 35.5 181.9375 33 184 C25.59878534 185.41811595 17.91534677 183.40173577 10.66015625 181.91796875 C7.1995204 181.21582175 3.73201848 180.61406443 0.24609375 180.05078125 C-17.781708 177.12640739 -17.781708 177.12640739 -25.2421875 174.01171875 C-30.46920791 172.09415744 -35.94947537 171.04575045 -41.375 169.83203125 C-45 169 -45 169 -48 168 C-48 167.34 -48 166.68 -48 166 C-48.60440918 165.89478027 -49.20881836 165.78956055 -49.83154297 165.68115234 C-56.15664223 164.50821366 -62.06557619 162.76093261 -68.125 160.625 C-75.86852779 157.95881115 -83.56662581 155.71961288 -91.5546875 153.921875 C-95.2737077 152.92676302 -98.49103323 151.57269354 -102 150 C-102.99 149.67 -103.98 149.34 -105 149 C-105.33 147.02 -105.66 145.04 -106 143 C-106.66 143 -107.32 143 -108 143 C-108.13277344 142.11957031 -108.26554687 141.23914063 -108.40234375 140.33203125 C-108.66724609 138.58986328 -108.66724609 138.58986328 -108.9375 136.8125 C-109.11152344 135.66394531 -109.28554687 134.51539063 -109.46484375 133.33203125 C-109.78667141 131.32824297 -110.13709909 129.32831309 -110.54296875 127.33984375 C-112.18331006 118.94185706 -110.40972119 114.12759391 -106 107 C-104.71577884 104.65178569 -103.44417937 102.30022388 -102.1875 99.9375 C-101.58292969 98.81214844 -100.97835937 97.68679687 -100.35546875 96.52734375 C-99.90816406 95.69332031 -99.46085937 94.85929687 -99 94 C-98.34 94 -97.68 94 -97 94 C-96.88914062 93.27167969 -96.77828125 92.54335937 -96.6640625 91.79296875 C-94.87614894 84.27321468 -89.10506038 77.60486319 -84.671875 71.40625 C-82.644165 68.48786364 -80.82314199 65.47272985 -79.04296875 62.3984375 C-78.69878906 61.93695313 -78.35460937 61.47546875 -78 61 C-77.34 61 -76.68 61 -76 61 C-76 60.34 -76 59.68 -76 59 C-75.34 59 -74.68 59 -74 59 C-73.773125 58.113125 -73.54625 57.22625 -73.3125 56.3125 C-71.8101365 52.52082069 -69.92977942 50.78686335 -67 48 C-66.46375 47.071875 -65.9275 46.14375 -65.375 45.1875 C-64.92125 44.465625 -64.4675 43.74375 -64 43 C-63.01 43 -62.02 43 -61 43 C-61 42.34 -61 41.68 -61 41 C-58.5 39.375 -58.5 39.375 -56 38 C-56.47356145 42.75283491 -58.41400145 45.00060009 -61.5625 48.5 C-67.79651587 55.63488521 -72.88622384 63.44334559 -77 72 C-77.66 72 -78.32 72 -79 72 C-79.433125 73.36125 -79.433125 73.36125 -79.875 74.75 C-80.76531776 77.32202908 -81.71494413 79.61346766 -83 82 C-83.66 82 -84.32 82 -85 82 C-85.09667969 82.72574219 -85.19335938 83.45148438 -85.29296875 84.19921875 C-86.09922292 87.39305432 -87.33595475 89.19262525 -89.3125 91.8125 C-92.40776126 96.06052317 -94.79433313 100.23575955 -97 105 C-97.66 105 -98.32 105 -99 105 C-99.2475 105.680625 -99.495 106.36125 -99.75 107.0625 C-100.76227379 109.44134342 -101.79394278 111.2388552 -103.1875 113.375 C-105.40915007 117.10507669 -105.03168377 119.78729129 -104 124 C-99.0814245 125.70783871 -94.21314158 127.28786313 -89.1171875 128.375 C-87 129 -87 129 -83.7734375 130.46484375 C-79.85225864 132.18473232 -75.96056413 132.89870771 -71.75 133.5625 C-64.39457109 134.73695261 -64.39457109 134.73695261 -61 137 C-59.22404781 137.61030279 -57.42856885 138.1644177 -55.625 138.6875 C-51.33763615 139.96121236 -47.09009595 141.29460468 -42.859375 142.74609375 C-29.68034303 147.35483997 -29.68034303 147.35483997 -16 150 C-16 150.66 -16 151.32 -16 152 C-14.82244141 152.07347656 -14.82244141 152.07347656 -13.62109375 152.1484375 C-12.57050781 152.22320312 -11.51992187 152.29796875 -10.4375 152.375 C-9.40496094 152.44460937 -8.37242188 152.51421875 -7.30859375 152.5859375 C-4 153 -4 153 -0.71875 153.96875 C3.8236537 155.22840817 8.25569197 155.69064214 12.9375 156.125 C13.81212891 156.21136719 14.68675781 156.29773438 15.58789062 156.38671875 C17.72470254 156.59689697 19.86228122 156.79925518 22 157 C22.66 155.68 23.32 154.36 24 153 C24.66 153 25.32 153 26 153 C26.08507812 152.48308594 26.17015625 151.96617187 26.2578125 151.43359375 C27.29603643 148.02931211 29.0818396 145.1121581 30.875 142.0625 C31.22691406 141.45470703 31.57882813 140.84691406 31.94140625 140.22070312 C32.95379695 138.47630503 33.97669842 136.73802 35 135 C35.53882813 134.02933594 36.07765625 133.05867187 36.6328125 132.05859375 C37.08398438 131.37925781 37.53515625 130.69992188 38 130 C38.66 130 39.32 130 40 130 C40.08894531 129.31035156 40.17789063 128.62070313 40.26953125 127.91015625 C41.17557932 124.30049949 42.7796558 121.63177629 44.6875 118.4375 C47.33471794 113.94374392 49.83681162 109.4416966 52.125 104.75 C54.04658601 100.85446869 56.03150827 97.02166121 58.1875 93.25 C58.88939453 92.02023438 58.88939453 92.02023438 59.60546875 90.765625 C60.06566406 90.18296875 60.52585938 89.6003125 61 89 C61.99 89 62.98 89 64 89 C64.061875 88.34 64.12375 87.68 64.1875 87 C65.14792553 83.45381344 66.79741361 80.97110249 68.8046875 77.92578125 C70.13075099 75.92764676 70.13075099 75.92764676 71.0625 73.1875 C72.21648447 70.49486958 73.50484971 69.48149548 76 68 C76.66 68 77.32 68 78 68 C78.28746094 67.42378906 78.57492188 66.84757812 78.87109375 66.25390625 C79.58823673 64.82210175 80.30916007 63.39217964 81.03515625 61.96484375 C81.54369141 60.96130859 81.54369141 60.96130859 82.0625 59.9375 C82.40410156 59.26589844 82.74570313 58.59429687 83.09765625 57.90234375 C85.68747137 52.44243048 85.90260549 46.91708046 85 41 C82.89395017 36.79892677 80.32189177 32.16094588 76 30 C76 29.34 76 28.68 76 28 C74.88625 27.5978125 74.88625 27.5978125 73.75 27.1875 C71 26 71 26 69.22705078 24.57202148 C66.47457725 22.62911674 63.81208795 21.7279316 60.6171875 20.66015625 C59.69572433 20.34781288 59.69572433 20.34781288 58.75564575 20.02915955 C56.79769044 19.36665512 54.83662796 18.71404071 52.875 18.0625 C50.3085894 17.20306731 47.74376735 16.33901566 45.1796875 15.47265625 C43.94677979 15.05628906 42.71387207 14.63992187 41.44360352 14.2109375 C38.46458457 13.1633704 35.55791461 12.03156295 32.64453125 10.81640625 C28.1135955 8.95829232 23.60602131 7.8312098 18.8125 6.875 C12.41636623 5.55316877 6.20449893 4.06816631 0 2 C0 1.34 0 0.68 0 0 Z " fill="#A55B2B" transform="translate(112,13)"/>
<path d="M0 0 C0.495 1.485 0.495 1.485 1 3 C-0.1875 4.91015625 -0.1875 4.91015625 -2 7.0625 C-5.92732513 11.87991473 -9.49251813 16.87121073 -13 22 C-13.86044922 23.25103516 -13.86044922 23.25103516 -14.73828125 24.52734375 C-17.83567996 29.02337353 -17.83567996 29.02337353 -20 34 C-20.66 34 -21.32 34 -22 34 C-22.433125 35.36125 -22.433125 35.36125 -22.875 36.75 C-23.76531776 39.32202908 -24.71494413 41.61346766 -26 44 C-26.66 44 -27.32 44 -28 44 C-28.09667969 44.72574219 -28.19335938 45.45148438 -28.29296875 46.19921875 C-29.09922292 49.39305432 -30.33595475 51.19262525 -32.3125 53.8125 C-35.40776126 58.06052317 -37.79433313 62.23575955 -40 67 C-40.66 67 -41.32 67 -42 67 C-42.2475 67.680625 -42.495 68.36125 -42.75 69.0625 C-44.24325594 72.57165146 -46.08122874 75.7021119 -48 79 C-48.6802367 80.32646156 -49.35492261 81.65608877 -50 83 C-50.33 83 -50.66 83 -51 83 C-51.33 85.97 -51.66 88.94 -52 92 C-52.33 92 -52.66 92 -53 92 C-54.64119219 85.64038025 -55.22165344 79.60763761 -51.9375 73.75 C-50.95868138 72.16645148 -49.97946663 70.58314779 -49 69 C-47.71577884 66.65178569 -46.44417937 64.30022388 -45.1875 61.9375 C-44.58292969 60.81214844 -43.97835937 59.68679687 -43.35546875 58.52734375 C-42.90816406 57.69332031 -42.46085937 56.85929687 -42 56 C-41.34 56 -40.68 56 -40 56 C-39.88914062 55.27167969 -39.77828125 54.54335937 -39.6640625 53.79296875 C-37.87614894 46.27321468 -32.10506038 39.60486319 -27.671875 33.40625 C-25.644165 30.48786364 -23.82314199 27.47272985 -22.04296875 24.3984375 C-21.69878906 23.93695313 -21.35460938 23.47546875 -21 23 C-20.34 23 -19.68 23 -19 23 C-19 22.34 -19 21.68 -19 21 C-18.34 21 -17.68 21 -17 21 C-16.773125 20.113125 -16.54625 19.22625 -16.3125 18.3125 C-14.8101365 14.52082069 -12.92977942 12.78686335 -10 10 C-9.46375 9.071875 -8.9275 8.14375 -8.375 7.1875 C-7.92125 6.465625 -7.4675 5.74375 -7 5 C-6.01 5 -5.02 5 -4 5 C-4 4.34 -4 3.68 -4 3 C-2 1.375 -2 1.375 0 0 Z " fill="#B26E3E" transform="translate(55,51)"/>
<path d="M0 0 C11.03133701 -0.55156685 20.87844561 2.91021618 31.26098633 6.22436523 C36.14449834 7.77178634 40.98021728 8.99604346 46 10 C47.33496448 10.32673956 48.66877156 10.6583573 50 11 C50 11.66 50 12.32 50 13 C50.85980469 13.12632813 51.71960938 13.25265625 52.60546875 13.3828125 C55.95572537 13.99195007 59.0722076 14.83390979 62.3125 15.875 C63.36050781 16.20242187 64.40851563 16.52984375 65.48828125 16.8671875 C66.31714844 17.24101562 67.14601563 17.61484375 68 18 C68.495 19.485 68.495 19.485 69 21 C70.36125 21.433125 70.36125 21.433125 71.75 21.875 C75.60635582 23.2098924 77.29119741 24.99835389 80 28 C80.598125 28.598125 81.19625 29.19625 81.8125 29.8125 C82.204375 30.204375 82.59625 30.59625 83 31 C81.1875 31.625 81.1875 31.625 79 32 C78.01 31.34 77.02 30.68 76 30 C76 29.34 76 28.68 76 28 C75.2575 27.731875 74.515 27.46375 73.75 27.1875 C71 26 71 26 69.22705078 24.57202148 C66.47457725 22.62911674 63.81208795 21.7279316 60.6171875 20.66015625 C60.00287872 20.45192734 59.38856995 20.24369843 58.75564575 20.02915955 C56.79769044 19.36665512 54.83662796 18.71404071 52.875 18.0625 C50.3085894 17.20306731 47.74376735 16.33901566 45.1796875 15.47265625 C43.94677979 15.05628906 42.71387207 14.63992187 41.44360352 14.2109375 C38.46458457 13.1633704 35.55791461 12.03156295 32.64453125 10.81640625 C28.1135955 8.95829232 23.60602131 7.8312098 18.8125 6.875 C12.41636623 5.55316877 6.20449893 4.06816631 0 2 C0 1.34 0 0.68 0 0 Z " fill="#B47140" transform="translate(112,13)"/>
<path d="M0 0 C1.23073242 -0.01836914 1.23073242 -0.01836914 2.48632812 -0.03710938 C7.57260373 -0.04928721 11.74380262 0.54667842 16.5625 2.1875 C16.2325 2.8475 15.9025 3.5075 15.5625 4.1875 C9.17323826 4.31277964 9.17323826 4.31277964 6.125 3.6875 C-2.46045892 2.0122885 -11.6281109 3.48597075 -19.25390625 7.76953125 C-21.74992064 9.47693901 -24.10414588 11.26515871 -26.4375 13.1875 C-27.4275 13.991875 -28.4175 14.79625 -29.4375 15.625 C-33.7641119 21.16847149 -33.69993257 27.99603849 -33.99609375 34.76953125 C-34.50274146 37.54488466 -35.27200373 38.44932833 -37.4375 40.1875 C-40.03335418 34.99579165 -39.2191199 26.82870846 -37.61328125 21.40234375 C-36.64908554 19.25530571 -35.60732533 17.22829017 -34.4375 15.1875 C-34.11136719 14.47851562 -33.78523438 13.76953125 -33.44921875 13.0390625 C-32.01165725 10.40815845 -30.03021442 9.63459642 -27.4375 8.1875 C-26.65375 7.5275 -25.87 6.8675 -25.0625 6.1875 C-17.43946228 0.37947126 -9.17948993 0.00717708 0 0 Z " fill="#B47140" transform="translate(95.4375,9.8125)"/>
<path d="M0 0 C3.49734228 0.38859359 6.65788261 0.88596087 10 2 C10.125 4.875 10.125 4.875 10 8 C9.34 8.66 8.68 9.32 8 10 C3.60370982 9.76236269 1.22741144 7.85856441 -2 5 C-1.125 1.125 -1.125 1.125 0 0 Z " fill="#CC7133" transform="translate(131,91)"/>
<path d="M0 0 C1.46779319 4.0154628 0.77099384 7.9280417 0.25 12.0625 C0.17523438 12.78244141 0.10046875 13.50238281 0.0234375 14.24414062 C-0.35314982 17.31675077 -0.62984025 19.53180289 -2.578125 21.99609375 C-3.04734375 22.32738281 -3.5165625 22.65867187 -4 23 C-5.46230215 20.07539571 -5.20908727 17.44347176 -5.25 14.1875 C-5.27578125 12.96417969 -5.3015625 11.74085937 -5.328125 10.48046875 C-4.8860432 5.79124391 -3.28046817 3.28046817 0 0 Z " fill="#AD6531" transform="translate(62,27)"/>
<path d="M0 0 C1.24426758 -0.01836914 1.24426758 -0.01836914 2.51367188 -0.03710938 C7.63429921 -0.04923399 11.83757474 0.5315876 16.6875 2.1875 C16.3575 2.8475 16.0275 3.5075 15.6875 4.1875 C9.29823826 4.31277964 9.29823826 4.31277964 6.25 3.6875 C-0.82423468 2.30716153 -8.21189173 3.45655503 -15.3125 4.1875 C-13.3125 1.1875 -13.3125 1.1875 -11.45629883 0.51049805 C-7.64334081 -0.06398589 -3.84900017 0.00294943 0 0 Z " fill="#AD6634" transform="translate(95.3125,9.8125)"/>
<path d="M0 0 C7.22324405 0.46105813 12.98068793 3.29851025 18.375 8.125 C18.91125 8.74375 19.4475 9.3625 20 10 C20.86625 10.86625 20.86625 10.86625 21.75 11.75 C22.1625 12.1625 22.575 12.575 23 13 C21.1875 13.625 21.1875 13.625 19 14 C18.01 13.34 17.02 12.68 16 12 C16 11.34 16 10.68 16 10 C15.2575 9.731875 14.515 9.46375 13.75 9.1875 C11 8 11 8 9.125 6.5625 C6.26215335 4.45746569 3.2930886 3.32990117 0 2 C0 1.34 0 0.68 0 0 Z " fill="#B16D3C" transform="translate(172,31)"/>
<path d="M0 0 C0.33 0 0.66 0 1 0 C1.22114415 2.79119779 1.42743301 5.5821212 1.625 8.375 C1.68945312 9.1690625 1.75390625 9.963125 1.8203125 10.78125 C1.96058587 12.85028224 1.98758237 14.92625536 2 17 C1.34 17.66 0.68 18.32 0 19 C-0.66 19 -1.32 19 -2 19 C-2.99 19.33 -3.98 19.66 -5 20 C-5 20.66 -5 21.32 -5 22 C-5.66 21.67 -6.32 21.34 -7 21 C-6.57847656 20.48953125 -6.15695313 19.9790625 -5.72265625 19.453125 C-0.94482345 13.11265983 -0.02658891 7.85702259 0 0 Z " fill="#C08963" transform="translate(56,34)"/>
<path d="M0 0 C4.72867022 0.46359512 8.18142796 1.0799155 12 4 C12.33 4.99 12.66 5.98 13 7 C9.88452559 6.32116957 7.14862279 5.25893098 4.25 3.9375 C3.45078125 3.57527344 2.6515625 3.21304688 1.828125 2.83984375 C1.22484375 2.56269531 0.6215625 2.28554688 0 2 C0 1.34 0 0.68 0 0 Z " fill="#AB6331" transform="translate(172,31)"/>
<path d="M0 0 C-0.66 1.32 -1.32 2.64 -2 4 C-4.97 3.505 -4.97 3.505 -8 3 C-8 2.01 -8 1.02 -8 0 C-4.71023192 -1.09658936 -3.28696233 -0.79953138 0 0 Z " fill="#D88641" transform="translate(91,80)"/>
<path d="M0 0 C2.50037734 2.17424117 3.43628586 3.73045798 4 7 C2.1875 8.0625 2.1875 8.0625 0 9 C-0.99 8.67 -1.98 8.34 -3 8 C-2.5359375 7.13375 -2.5359375 7.13375 -2.0625 6.25 C-1.07416636 4.15705816 -0.4831387 2.25464725 0 0 Z " fill="#E5A05A" transform="translate(96,22)"/>
<path d="M0 0 C4.29 0.99 8.58 1.98 13 3 C13 3.33 13 3.66 13 4 C11.01432292 3.96744792 9.02864583 3.93489583 7.04296875 3.90234375 C4.79694539 3.91736783 4.79694539 3.91736783 2 5 C1.34 3.35 0.68 1.7 0 0 Z " fill="#BE8359" transform="translate(145,20)"/>
<path d="M0 0 C4.16138263 -0.08159574 7.9472484 0.01751476 12 1 C11.67 1.66 11.34 2.32 11 3 C3.57142857 3.14285714 3.57142857 3.14285714 0 2 C0 1.34 0 0.68 0 0 Z " fill="#AA5F2C" transform="translate(100,11)"/>
<path d="M0 0 C0.86625 0.3403125 0.86625 0.3403125 1.75 0.6875 C0.80125 1.43 -0.1475 2.1725 -1.125 2.9375 C-3.57532401 4.96595219 -5.12325363 6.6452848 -6.25 9.6875 C-6.5 6.375 -6.5 6.375 -6.25 2.6875 C-4.13578911 0.27125898 -3.2149628 -0.44652261 0 0 Z " fill="#E5A25D" transform="translate(179.25,68.3125)"/>
<path d="M0 0 C0.33 0.99 0.66 1.98 1 3 C1.66 3.33 2.32 3.66 3 4 C1.625 5.5 1.625 5.5 0 7 C-1.66666667 7 -3.33333333 7 -5 7 C-3.70700306 4.11562221 -2.34058637 2.12780579 0 0 Z " fill="#B97B4E" transform="translate(43,63)"/>
<path d="M0 0 C0.66 0.99 1.32 1.98 2 3 C-0.64 5.97 -3.28 8.94 -6 12 C-6 8.36804504 -5.04546845 7.25286089 -3 4.3125 C-2.443125 3.50425781 -1.88625 2.69601563 -1.3125 1.86328125 C-0.879375 1.24839844 -0.44625 0.63351563 0 0 Z " fill="#E3AB6D" transform="translate(60,47)"/>
<path d="M0 0 C1.31571603 0.2547514 2.62760376 0.52934141 3.9375 0.8125 C4.66839844 0.96332031 5.39929688 1.11414063 6.15234375 1.26953125 C6.76207031 1.51058594 7.37179688 1.75164063 8 2 C8.33 2.99 8.66 3.98 9 5 C4.545 4.01 4.545 4.01 0 3 C0 2.01 0 1.02 0 0 Z " fill="#AE6734" transform="translate(137,18)"/>
<path d="M0 0 C2.97 0 5.94 0 9 0 C9 0.66 9 1.32 9 2 C3.375 3.125 3.375 3.125 0 2 C0 1.34 0 0.68 0 0 Z " fill="#AC6432" transform="translate(112,13)"/>
<path d="M0 0 C0.99 0.33 1.98 0.66 3 1 C1.02 3.31 -0.96 5.62 -3 8 C-3 4.42424104 -1.91159393 2.94704065 0 0 Z " fill="#E7AE6E" transform="translate(27,97)"/>
<path d="M0 0 C0.66 0 1.32 0 2 0 C2 1.65 2 3.3 2 5 C1.01 5.495 1.01 5.495 0 6 C-0.66 5.67 -1.32 5.34 -2 5 C-1.125 1.125 -1.125 1.125 0 0 Z " fill="#E39F5B" transform="translate(75,43)"/>
<path d="M0 0 C1.9375 0.8125 1.9375 0.8125 4 2 C4.33 2.99 4.66 3.98 5 5 C4.01 5.33 3.02 5.66 2 6 C1.01 5.01 0.02 4.02 -1 3 C-0.67 2.01 -0.34 1.02 0 0 Z " fill="#B57445" transform="translate(184,35)"/>
<path d="M0 0 C0.99 0.33 1.98 0.66 3 1 C-0.465 3.97 -0.465 3.97 -4 7 C-2.92598892 4.08482708 -2.22189824 2.22189824 0 0 Z " fill="#E3AA6C" transform="translate(49,62)"/>
<path d="M0 0 C-1.32 0.33 -2.64 0.66 -4 1 C-4 1.66 -4 2.32 -4 3 C-3.01 3.33 -2.02 3.66 -1 4 C-4.37462715 3.45276317 -6.08235 2.9451 -9 1 C-5.8035914 -0.06546953 -3.34252724 -0.07427838 0 0 Z " fill="#B77747" transform="translate(127,14)"/>
</svg>
